<svg xmlns="http://www.w3.org/2000/svg" viewBox="0 0 190 205" width="190" height="205">
    <style>
        tspan { white-space:pre }
        .shp0 { fill: #fefefe }
        .shp1 { fill: #000000 }
    </style>
    <g id="Background">
        <path id="Path 0" fill-rule="evenodd" class="shp0"
              d="M0 -29L199 -29L199 229L0 229L0 205L29.75 204.93C46.11 204.9 88.86 204.9 190 205L190 0L0 0L0 -29ZM83.5 3.25C85.7 3.24 86.74 3.44 85.81 3.69C84.89 3.94 83.09 3.95 81.81 3.71C80.54 3.47 81.3 3.26 83.5 3.25Z"/>
        <path id="Path 1" fill-rule="evenodd" class="shp1"
              d="M84.5 4.28C93.31 4.57 95.22 4.98 100.5 7.67C104.12 9.52 108.41 12.87 111.31 16.12C113.97 19.09 116.99 23.85 118.06 26.75C119.34 30.21 120 34.55 120 39.5C120 44.84 119.36 48.66 117.79 52.75C116.35 56.49 113.65 60.54 110.04 64.35C106.99 67.57 101.58 72.05 98 74.3C94.42 76.56 86.78 80.52 81 83.12C75.22 85.72 70.39 88.33 70.25 88.92C70.11 89.51 73.98 97.76 78.84 107.25C83.71 116.74 90.27 128.78 93.43 134C96.59 139.22 101.48 146.88 104.29 151C107.09 155.13 111.55 161.31 119 171L123.21 165.25C125.52 162.09 129.33 155.9 131.67 151.5C134.01 147.1 137.31 139.45 138.99 134.5C140.67 129.55 142.24 124.15 142.48 122.5C142.72 120.85 143.32 117.03 143.82 114C144.34 110.88 144.36 106.99 143.87 105C143.4 103.07 142 100.49 140.76 99.25C139.52 98.02 137.38 96.7 136 96.34C134.63 95.97 133.16 95.51 132.75 95.33C132.34 95.15 129.97 95 127.5 95C123.02 95 123 94.98 123 88L181 88L180.75 91.25C180.51 94.4 180.34 94.52 175 95.14C171.97 95.49 168.15 96.46 166.5 97.29C164.85 98.12 162.26 100.2 160.75 101.9C159.12 103.74 157.17 107.96 155.96 112.25C154.84 116.24 152.55 123.55 150.88 128.5C149.21 133.45 145.93 141.55 143.61 146.5C141.28 151.45 137.65 158.2 135.55 161.5C133.45 164.8 129.99 169.64 124 177L128.25 180.69C130.59 182.72 134.97 185.49 138 186.85C141.35 188.35 145.46 189.33 148.5 189.37C151.25 189.41 156.43 189.1 160 188.68C163.62 188.27 168.94 186.75 172 185.26C175.03 183.79 179.41 180.66 186 174L187.46 176.25C188.77 178.28 188.7 178.79 186.75 181.5C185.56 183.15 182.05 186.97 178.95 190C175.85 193.03 170.65 196.8 167.41 198.39C164.16 199.98 158.8 201.76 155.5 202.35C151 203.15 147.87 203.09 143 202.15C139.43 201.45 133.57 199.53 130 197.87C126.42 196.22 121.14 193.1 113 187L108.75 189.92C106.41 191.52 101.13 194.43 97 196.39C92.88 198.34 86.8 200.67 83.5 201.57C80.2 202.47 72.78 203.44 67 203.73C58.32 204.16 55.02 203.88 48 202.09C43.33 200.91 36.58 198.28 33 196.25C29.42 194.23 23.58 189.79 20 186.38C16.42 182.98 11.93 177.57 10 174.37C8.07 171.16 5.68 166.06 4.67 163.02C3.49 159.45 2.86 154.67 2.88 149.5C2.9 145.1 3.44 139.03 4.07 136C4.7 132.97 6.51 127.69 8.11 124.25C9.82 120.54 13.54 115.3 17.25 111.37C20.69 107.72 26.2 102.82 29.5 100.48C32.8 98.14 39.21 94.38 43.75 92.12C48.29 89.85 52.01 87.66 52.02 87.25C52.04 86.84 50.87 83.35 49.44 79.5C48.01 75.65 45.72 68.67 44.36 64C43 59.33 41.65 52.58 41.36 49C41.07 45.42 41.37 39.58 42.01 36C42.66 32.42 44.11 27.7 45.23 25.5C46.35 23.3 48.5 19.92 50 18C51.51 16.08 54.68 13.15 57.05 11.5C59.42 9.85 64.32 7.47 67.93 6.22C73.45 4.31 76.1 4 84.5 4.28ZM65.43 19.44C62.83 22.05 60.71 25.47 59.54 29C58.05 33.45 57.82 36.21 58.34 43.5C58.69 48.45 60.05 57.22 61.37 63C62.69 68.78 64.5 75.19 65.39 77.25C66.91 80.79 67.16 80.94 69.75 79.93C71.26 79.35 75.65 77.28 79.5 75.33C83.35 73.39 88.94 69.93 91.92 67.65C94.9 65.37 98.84 61.47 100.66 59C102.49 56.53 104.67 52.25 105.5 49.5C106.34 46.75 107 41.8 106.97 38.5C106.94 35.2 106.36 30.92 105.69 29C105.02 27.08 102.9 23.51 100.99 21.07C98.85 18.36 95.56 15.75 92.5 14.33C89.47 12.93 85.72 12.05 83 12.09C80.53 12.13 76.47 12.88 74 13.77C71.53 14.65 67.67 17.2 65.43 19.44ZM40.25 103.6C36.63 106.15 32.08 110.63 29.44 114.25C26.71 117.98 24.08 123.12 22.91 127C21.82 130.62 20.96 136.38 20.97 140C20.98 143.57 21.67 149.09 22.49 152.25C23.32 155.41 25.42 160.81 27.15 164.25C28.92 167.77 32.96 173.19 36.4 176.66C40.71 181.01 44.7 183.85 50 186.33C54.13 188.26 60.65 190.39 64.5 191.05C68.53 191.75 74.47 192 78.5 191.64C82.35 191.29 87.97 190.17 91 189.15C94.03 188.13 98.08 186.5 100 185.53C101.92 184.55 104.29 183.14 105.25 182.38C106.86 181.11 106.43 180.28 99.61 171.75C95.55 166.66 89.32 158 85.77 152.5C82.21 147 76.42 137.32 72.9 130.98C69.38 124.64 64.03 114.18 61 107.73C57.98 101.29 55.05 96.05 54.5 96.09C53.95 96.13 51.92 96.85 50 97.68C48.08 98.51 43.69 101.18 40.25 103.6Z"/>
        <path id="Path 2" class="shp0"
              d="M106.98 11.25C106.97 11.39 108.43 12.85 110.23 14.5L113.5 17.5C109.42 12.46 107.96 11 107.62 11C107.28 11 106.99 11.11 106.98 11.25ZM107.27 39C107.27 41.47 107.47 42.38 107.71 41C107.94 39.63 107.94 37.6 107.71 36.5C107.47 35.4 107.27 36.53 107.27 39ZM120.29 39.5C120.29 42.33 120.48 43.2 120.71 41.5C120.94 39.85 120.94 37.6 120.7 36.5C120.46 35.4 120.28 36.75 120.29 39.5ZM108.45 66.25L104.5 70.5C111.11 64.3 113.02 62.39 113.02 62.25C113.01 62.11 112.87 62 112.7 62C112.54 62 110.62 63.91 108.45 66.25ZM137 87.75C144.97 87.92 158.25 87.92 166.5 87.75C174.75 87.58 168.22 87.44 152 87.44C135.78 87.44 129.03 87.58 137 87.75ZM18.46 109.25L13.5 114.5C21.66 106.75 24.02 104.39 24.01 104.25C24.01 104.11 23.87 104 23.71 104C23.55 104 21.19 106.36 18.46 109.25ZM20.23 140C20.23 141.93 20.44 142.82 20.69 142C20.94 141.18 20.94 139.6 20.69 138.5C20.44 137.4 20.23 138.07 20.23 140ZM2.27 146C2.27 148.47 2.47 149.38 2.71 148C2.94 146.63 2.94 144.6 2.71 143.5C2.47 142.4 2.27 143.53 2.27 146ZM32.98 174.25C32.97 174.39 34.43 175.85 36.23 177.5L39.5 180.5C35.42 175.46 33.96 174 33.62 174C33.28 174 32.99 174.11 32.98 174.25ZM18.5 186C20.7 188.22 22.73 190.03 23 190.03C23.27 190.03 21.85 188.22 19.84 186.02C17.83 183.81 15.8 181.99 15.34 181.98C14.88 181.98 16.3 183.78 18.5 186Z"/>
    </g>
</svg>