<svg xmlns="http://www.w3.org/2000/svg" viewBox="0 0 2096 1097" width="2096" height="1097">
    <style>
        tspan { white-space:pre }
        .shp0 { fill: #010101 }
    </style>
    <path id="Path 0" fill-rule="evenodd" class="shp0"
          d="M658 5L658 87L332 87L332.56 94.75C332.86 99.01 333.56 105.88 334.12 110C334.67 114.13 336.23 121.78 337.59 127C338.94 132.22 341.23 139.65 342.66 143.5C344.1 147.35 347.66 155.22 350.57 161C353.49 166.78 358.72 175.55 362.19 180.5C365.66 185.45 373.67 194.67 380 201C386.33 207.33 395.55 215.35 400.5 218.84C405.45 222.32 413.1 227.11 417.5 229.48C421.9 231.85 429.55 235.39 434.5 237.35C439.45 239.3 447.78 242.05 453 243.46C458.22 244.86 467.56 246.69 473.75 247.51C482.5 248.67 496.58 249 537 249C580.42 249 590.28 249.26 596.75 250.58C601.01 251.45 607.2 253.25 610.5 254.58C613.8 255.92 618.9 258.47 621.84 260.26C624.78 262.04 629.91 265.97 633.24 269C636.57 272.03 641.23 277.2 643.58 280.5C645.94 283.8 649.2 289.42 650.83 293C652.47 296.58 654.63 302.42 655.65 306C657.17 311.38 657.48 316.03 657.45 333C657.43 344.28 656.85 358.45 656.16 364.5C655.47 370.55 654.21 379.78 653.36 385C652.51 390.22 650.3 400.8 648.44 408.5C646.59 416.2 643.07 428.35 640.63 435.5C638.18 442.65 634.06 453.45 631.48 459.5C628.89 465.55 625.19 473.65 623.26 477.5C621.33 481.35 617.26 488.78 614.22 494C611.18 499.22 605.32 508.45 601.2 514.5C597.07 520.55 590.31 529.78 586.15 535C582 540.22 571.16 551.97 562.05 561.09C552.95 570.21 541.22 581.06 536 585.18C530.78 589.31 521.55 596.07 515.5 600.2C509.45 604.34 500 610.34 494.5 613.55C489 616.77 478.65 622.17 471.5 625.57C464.35 628.97 452.65 633.87 445.5 636.47C438.35 639.07 427.1 642.74 420.5 644.64C413.9 646.54 402.88 649.21 396 650.57C389.13 651.94 378.33 653.8 372 654.72C361.69 656.2 342.12 656.41 6 657L6 575L331.5 575.01L330.83 564.26C330.46 558.34 329.24 549 328.12 543.5C327.01 538 324.68 529.22 322.95 524C321.23 518.78 317.64 510 314.99 504.5C312.34 499 307.46 490.45 304.15 485.5C300.84 480.55 294.95 472.79 291.07 468.25C287.18 463.71 280.29 456.84 275.75 452.98C271.21 449.11 263.9 443.54 259.5 440.6C255.1 437.65 247 432.99 241.5 430.24C236 427.48 228.13 424.03 224 422.56C219.88 421.09 213.13 419.04 209 418C204.88 416.96 198.58 415.56 195 414.89C190.64 414.07 168.74 413.46 128.5 413.02C76.46 412.46 67.7 412.15 62.5 410.68C59.2 409.75 52.45 407.01 47.5 404.6C40.93 401.39 36.38 398.23 30.63 392.85C26.3 388.81 20.84 382.57 18.49 379C16.13 375.43 13.08 369.8 11.69 366.5C10.31 363.2 8.4 356.68 7.45 352C6 344.88 5.81 340.08 6.3 322.5C6.61 310.95 7.6 296.1 8.48 289.5C9.37 282.9 11.24 271.88 12.64 265C14.05 258.13 16.68 247.33 18.5 241C20.32 234.67 23.96 223.65 26.59 216.5C29.22 209.35 35.54 195.17 40.63 185C45.72 174.83 53.9 160.42 58.81 153C63.71 145.58 70.74 135.67 74.43 131C78.12 126.33 85.57 117.55 90.98 111.5C96.4 105.45 105.93 95.93 112.17 90.33C118.4 84.74 126.42 77.83 130 74.97C133.58 72.11 140.55 66.94 145.5 63.48C150.45 60.02 159.11 54.45 164.75 51.1C170.39 47.74 180.29 42.36 186.75 39.14C193.21 35.92 204.13 31 211 28.22C217.88 25.44 228.9 21.52 235.5 19.52C242.1 17.52 252 14.84 257.5 13.55C263 12.27 271.78 10.52 277 9.67C282.22 8.82 290.78 7.64 296 7.05C301.22 6.47 307.3 5.84 309.5 5.66C311.7 5.48 391.01 5.26 658 5ZM722 5L1374 5L1374 87L722 87L722 5ZM1438.06 4.94L1615.78 5.27C1749.15 5.52 1795.37 5.91 1801 6.82C1805.13 7.49 1813 8.75 1818.5 9.63C1824 10.5 1833 12.26 1838.5 13.55C1844 14.83 1853.9 17.52 1860.5 19.52C1867.1 21.52 1878.13 25.44 1885 28.22C1891.88 31 1902.79 35.92 1909.25 39.14C1915.71 42.36 1925.61 47.74 1931.25 51.1C1936.89 54.45 1945.55 60.02 1950.5 63.48C1955.45 66.94 1962.43 72.11 1966 74.97C1969.57 77.83 1977.6 84.74 1983.83 90.33C1990.07 95.93 1999.6 105.45 2005.02 111.5C2010.43 117.55 2017.88 126.33 2021.57 131C2025.26 135.67 2032.29 145.58 2037.19 153C2042.1 160.42 2050.28 174.83 2055.37 185C2060.46 195.17 2066.78 209.35 2069.41 216.5C2072.04 223.65 2075.68 234.67 2077.5 241C2079.32 247.33 2081.95 258.13 2083.36 265C2084.76 271.88 2086.63 282.9 2087.52 289.5C2088.4 296.1 2089.39 310.95 2089.7 322.5C2090.19 340.08 2090 344.88 2088.55 352C2087.6 356.68 2085.69 363.2 2084.31 366.5C2082.92 369.8 2079.87 375.43 2077.51 379C2075.16 382.57 2069.7 388.81 2065.37 392.85C2059.62 398.23 2055.07 401.39 2048.5 404.6C2043.55 407.01 2036.8 409.75 2033.5 410.68C2028.3 412.15 2019.54 412.46 1967.5 413.02C1927.26 413.46 1905.36 414.07 1901 414.89C1897.43 415.56 1891.13 416.96 1887 418C1882.88 419.04 1876.13 421.1 1872 422.57C1867.88 424.05 1860 427.51 1854.5 430.26C1849 433.01 1840.9 437.67 1836.5 440.61C1832.1 443.55 1824.79 449.11 1820.25 452.98C1815.71 456.84 1808.82 463.71 1804.93 468.25C1801.05 472.79 1795.16 480.55 1791.85 485.5C1788.54 490.45 1783.66 499 1781.01 504.5C1778.36 510 1774.77 518.78 1773.05 524C1771.32 529.22 1768.99 538 1767.88 543.5C1766.76 549 1765.54 558.34 1764.5 575.01L2090 575L2090 657L1912.75 656.69C1753.88 656.41 1734.31 656.2 1724 654.72C1717.68 653.8 1706.88 651.94 1700 650.57C1693.13 649.21 1682.1 646.54 1675.5 644.64C1668.9 642.74 1657.65 639.07 1650.5 636.47C1643.35 633.87 1631.65 628.97 1624.5 625.57C1617.35 622.17 1607 616.77 1601.5 613.55C1596 610.34 1586.55 604.34 1580.5 600.2C1574.45 596.07 1565.22 589.31 1560 585.18C1554.78 581.06 1543.05 570.21 1533.95 561.09C1524.84 551.97 1514 540.22 1509.85 535C1505.69 529.78 1498.93 520.55 1494.8 514.5C1490.68 508.45 1484.82 499.22 1481.78 494C1478.74 488.78 1474.67 481.35 1472.74 477.5C1470.81 473.65 1467.11 465.55 1464.52 459.5C1461.94 453.45 1457.82 442.65 1455.37 435.5C1452.93 428.35 1449.41 416.2 1447.56 408.5C1445.7 400.8 1443.49 390.22 1442.65 385C1441.8 379.78 1440.54 370.78 1439.85 365C1439.16 359.22 1438.57 345.05 1438.54 333.5C1438.51 316 1438.81 311.42 1440.35 306C1441.36 302.42 1443.53 296.58 1445.17 293C1446.8 289.42 1450.06 283.8 1452.42 280.5C1454.77 277.2 1459.43 272.03 1462.76 269C1466.09 265.97 1471.22 262.04 1474.16 260.26C1477.1 258.47 1482.2 255.92 1485.5 254.58C1488.8 253.25 1494.99 251.45 1499.25 250.58C1505.72 249.26 1515.58 249 1559 249C1599.42 249 1613.5 248.67 1622.25 247.51C1628.44 246.69 1637.78 244.86 1643 243.46C1648.22 242.05 1656.55 239.3 1661.5 237.35C1666.45 235.39 1674.1 231.85 1678.5 229.48C1682.9 227.11 1690.55 222.32 1695.5 218.84C1700.45 215.35 1709.68 207.32 1716 201C1722.32 194.67 1730.06 185.9 1733.18 181.5C1736.31 177.1 1741.24 169 1744.13 163.5C1747.03 158 1750.9 149.67 1752.74 145C1754.58 140.33 1757.15 132.22 1758.46 127C1759.77 121.78 1761.31 114.13 1761.87 110C1762.43 105.88 1763.14 99.01 1764 87L1438 87L1438.06 4.94ZM1053 186.72C1057.68 187.01 1065.21 188.32 1069.75 189.62C1074.29 190.93 1080.36 193.19 1083.25 194.63C1086.14 196.08 1090.53 198.65 1093 200.34C1095.47 202.03 1100.88 206.28 1105 209.8C1109.13 213.31 1116.32 218.73 1121 221.83C1125.68 224.93 1133.78 229.59 1139 232.17C1144.22 234.76 1153.22 238.45 1159 240.38C1164.78 242.31 1174 244.88 1179.5 246.09C1188.98 248.18 1192.7 248.33 1250.5 248.96C1309.86 249.62 1311.7 249.7 1319 251.89C1323.13 253.12 1330.1 256.02 1334.49 258.32C1340.26 261.34 1344.89 264.87 1351.11 271C1356.97 276.79 1361.04 281.89 1363.87 287C1366.15 291.13 1369.18 298.1 1370.6 302.5C1372.61 308.71 1373.31 313.3 1373.71 323C1373.99 329.88 1373.72 341.35 1373.1 348.5C1372.47 355.65 1371.27 366.22 1370.43 372C1369.58 377.78 1367.59 388.35 1366.01 395.5C1364.42 402.65 1361.52 413.79 1359.56 420.25C1357.6 426.71 1353.81 437.51 1351.13 444.25C1348.44 450.99 1344.48 460.32 1342.31 465C1340.15 469.68 1335.75 478.22 1332.54 484C1329.33 489.78 1322.54 500.8 1317.45 508.5C1312.36 516.2 1304.24 527.45 1299.39 533.5C1294.55 539.55 1283.37 551.73 1274.54 560.57C1265.72 569.41 1253.55 580.58 1247.5 585.39C1241.45 590.2 1231.32 597.65 1225 601.93C1218.68 606.22 1208.55 612.53 1202.5 615.96C1196.45 619.38 1185.88 624.79 1179 627.97C1172.13 631.15 1160.65 635.88 1153.5 638.48C1146.35 641.07 1133.75 644.91 1125.5 647.01C1117.25 649.11 1104.88 651.74 1098 652.87C1091.13 653.99 1078.75 655.44 1070.5 656.1C1061.48 656.81 1048.53 657.04 1038 656.67C1028.38 656.33 1015.1 655.37 1008.5 654.55C1001.9 653.72 992.68 652.33 988 651.45C983.32 650.58 974.32 648.57 968 646.98C961.68 645.39 951.1 642.31 944.5 640.13C937.9 637.96 927.1 633.86 920.5 631.04C913.9 628.21 902.99 623 896.25 619.45C889.51 615.9 880.29 610.68 875.75 607.84C871.21 605 863.45 599.76 858.5 596.19C853.55 592.63 846.35 587.14 842.5 584C838.65 580.86 831.87 574.96 827.43 570.9C822.99 566.83 814.75 558.55 809.11 552.5C803.47 546.45 795.35 537 791.06 531.5C786.76 526 780.13 516.78 776.32 511C772.51 505.22 767.3 496.9 764.74 492.5C762.19 488.1 757.2 478.43 753.66 471C750.12 463.57 744.98 451.43 742.23 444C739.49 436.57 736.1 426.45 734.7 421.5C733.3 416.55 731.02 407.32 729.63 401C728.24 394.68 726.42 384.78 725.59 379C724.75 373.22 723.55 362.2 722.91 354.5C722.27 346.8 721.98 333.75 722.26 325.5C722.68 312.92 723.18 309.21 725.38 302.5C726.81 298.1 729.85 291.13 732.13 287C734.96 281.89 739.03 276.79 744.89 271C751.11 264.87 755.74 261.34 761.51 258.32C765.9 256.02 772.88 253.12 777 251.89C784.3 249.7 786.14 249.62 845.5 248.96C903.3 248.33 907.02 248.18 916.5 246.09C922 244.88 931.22 242.31 937 240.38C942.78 238.45 951.78 234.76 957 232.17C962.22 229.59 970.32 224.93 975 221.83C979.68 218.73 986.88 213.31 991 209.8C995.13 206.28 1000.53 202.03 1003 200.34C1005.47 198.65 1009.75 196.13 1012.5 194.75C1015.25 193.36 1020.65 191.24 1024.5 190.04C1028.35 188.83 1034.43 187.47 1038 187.02C1041.57 186.57 1048.32 186.43 1053 186.72ZM247 1000.05C252.36 1000.03 258.9 1000.67 262 1001.51C265.03 1002.33 269.19 1004.12 271.25 1005.5C273.31 1006.87 276.06 1009.46 277.36 1011.25C278.66 1013.04 280.24 1016.07 280.88 1018C281.51 1019.93 282.03 1021.84 282.02 1022.25C282.01 1022.66 280.09 1023.01 277.75 1023.02C273.7 1023.03 273.39 1022.82 271.25 1018.52C270.01 1016.03 267.54 1013.09 265.75 1011.99C263.96 1010.88 260.7 1009.49 258.5 1008.89C256.3 1008.3 250.67 1007.84 246 1007.88C239.23 1007.93 236.58 1008.41 233 1010.22C230.53 1011.47 227.45 1014.07 226.17 1016C224.32 1018.76 223.95 1020.34 224.4 1023.5C224.71 1025.7 225.65 1028.51 226.48 1029.75C227.32 1030.99 229.91 1032.96 232.25 1034.13C234.59 1035.29 242.8 1037.58 250.5 1039.21C258.2 1040.84 267.2 1043.44 270.5 1044.98C273.8 1046.53 277.96 1049.42 279.75 1051.4C281.95 1053.84 283.33 1056.69 284.03 1060.25C284.74 1063.85 284.74 1067.07 284.04 1070.5C283.35 1073.85 281.77 1076.95 279.25 1079.89C277.19 1082.31 273.47 1085.3 271 1086.54C268.53 1087.78 263.58 1089.36 260 1090.05C256.14 1090.79 250.05 1091.08 245 1090.76C240.13 1090.45 234.15 1089.34 231 1088.16C227.97 1087.03 223.47 1084.36 221 1082.23C218.53 1080.11 215.26 1075.92 213.74 1072.93C212.22 1069.95 210.98 1066.49 210.99 1065.25C211 1063.29 211.52 1063 215 1063C218.4 1063 219.18 1063.41 220.21 1065.75C220.87 1067.26 222.67 1070.41 224.21 1072.75C226.22 1075.81 228.61 1077.76 232.75 1079.72C237.21 1081.83 240.4 1082.53 247 1082.85C252.91 1083.13 257.25 1082.76 261.25 1081.63C264.69 1080.65 268.44 1078.69 270.57 1076.75C272.7 1074.82 274.52 1071.98 275.07 1069.75C275.64 1067.45 275.64 1064.55 275.07 1062.25C274.55 1060.12 272.71 1057.18 270.82 1055.45C269 1053.77 265.25 1051.63 262.5 1050.7C259.75 1049.77 252.1 1047.89 245.5 1046.52C238.71 1045.11 230.79 1042.72 227.25 1041.02C222.7 1038.82 220.25 1036.86 218.25 1033.82C215.99 1030.39 215.51 1028.55 215.54 1023.57C215.57 1019.32 216.25 1016.22 217.79 1013.25C219.01 1010.91 221.46 1007.89 223.25 1006.54C225.04 1005.18 228.97 1003.17 232 1002.07C236.03 1000.61 240.04 1000.07 247 1000.05ZM1841.5 1000.25C1851.32 1000.5 1853.2 1000.86 1859 1003.57C1862.57 1005.23 1867.68 1008.6 1870.35 1011.05C1873.01 1013.5 1876.52 1017.53 1878.14 1020C1879.76 1022.47 1881.98 1027.43 1883.06 1031C1884.36 1035.27 1885.04 1040.33 1885.02 1045.75C1885.01 1050.81 1884.31 1056.22 1883.21 1059.75C1882.22 1062.91 1880.25 1067.53 1878.82 1070C1877.39 1072.47 1874.03 1076.56 1871.36 1079.08C1868.69 1081.6 1864.59 1084.64 1862.25 1085.83C1859.91 1087.03 1855.41 1088.68 1852.25 1089.51C1849.09 1090.33 1843.91 1091.01 1840.75 1091.01C1837.59 1091 1831.96 1090.33 1828.25 1089.51C1824.06 1088.59 1819.22 1086.57 1815.5 1084.2C1812.2 1082.1 1807.79 1078.38 1805.7 1075.94C1803.61 1073.5 1800.83 1069.25 1799.52 1066.5C1798.22 1063.75 1796.68 1059.47 1796.1 1057C1795.52 1054.53 1795.03 1049.13 1795.01 1045C1795 1040.88 1795.71 1035.03 1796.6 1032C1797.49 1028.97 1799.02 1024.93 1799.99 1023C1800.97 1021.07 1803.96 1017.08 1806.63 1014.12C1809.31 1011.16 1813.53 1007.56 1816 1006.13C1818.47 1004.69 1822.75 1002.72 1825.5 1001.74C1829.39 1000.35 1832.94 1000.02 1841.5 1000.25ZM1816.15 1016.69C1812.63 1019.85 1809.72 1023.72 1807.65 1027.98C1804.79 1033.85 1804.5 1035.33 1804.5 1043.98C1804.5 1049.21 1805.04 1055.3 1805.69 1057.5C1806.35 1059.7 1808.69 1064.2 1810.89 1067.5C1813.25 1071.04 1816.86 1074.81 1819.69 1076.68C1822.34 1078.43 1826.97 1080.57 1830 1081.44C1833.03 1082.31 1837.75 1083.02 1840.5 1083.03C1843.25 1083.04 1848.54 1082.13 1852.25 1081.02C1857.4 1079.48 1860.24 1077.86 1864.25 1074.16C1867.75 1070.93 1870.48 1067.18 1872.43 1062.91C1874.64 1058.07 1875.48 1054.54 1875.82 1048.5C1876.18 1042.25 1875.82 1038.92 1874.14 1033.25C1872.65 1028.19 1870.72 1024.44 1867.75 1020.83C1865.07 1017.58 1861.09 1014.35 1857 1012.11C1851.02 1008.83 1849.74 1008.53 1841 1008.27C1833.49 1008.05 1830.45 1008.4 1826.5 1009.93C1823.75 1011 1819.09 1014.04 1816.15 1016.69ZM530 1001L607 1001L607 1009L573 1009L573 1089L564 1089L564 1009L530 1009L530 1001ZM859 1001L867 1001L866.99 1027.25C866.99 1042.2 867.46 1056.08 868.1 1059.5C868.7 1062.8 870 1067.07 870.98 1069C871.96 1070.93 874.61 1074.19 876.88 1076.25C879.55 1078.68 883.03 1080.58 886.75 1081.63C890.93 1082.82 894.55 1083.1 900 1082.67C905.22 1082.25 908.73 1081.36 911.54 1079.73C913.76 1078.44 917.01 1075.62 918.76 1073.45C920.63 1071.13 922.58 1067.02 923.48 1063.5C924.68 1058.81 925.01 1051.34 925 1001L933.5 1001.5L933.48 1030.5C933.47 1049.81 933.06 1061.34 932.24 1065C931.56 1068.03 929.54 1072.97 927.74 1076C925.62 1079.59 922.75 1082.65 919.49 1084.81C916.75 1086.62 912.7 1088.65 910.5 1089.31C908.3 1089.96 901.78 1090.5 896 1090.5C888.25 1090.49 884.06 1089.99 880 1088.58C876.08 1087.22 872.88 1085.06 868.89 1081.08C864.2 1076.42 862.92 1074.35 861.11 1068.5C859.1 1061.98 858.96 1059.44 858.98 1031.25L859 1001ZM1217 1001.24C1235.69 1001.62 1239.32 1001.96 1244.75 1003.84C1248.19 1005.03 1252.69 1007.08 1254.75 1008.39C1256.81 1009.71 1260.16 1012.52 1262.18 1014.64C1264.21 1016.76 1266.99 1020.75 1268.38 1023.5C1269.76 1026.25 1271.42 1030.97 1272.07 1034C1272.76 1037.17 1273.04 1043.11 1272.75 1048C1272.46 1052.74 1271.39 1058.71 1270.32 1061.5C1269.27 1064.25 1266.97 1068.64 1265.2 1071.25C1263.44 1073.86 1259.86 1077.71 1257.25 1079.79C1254.64 1081.88 1249.8 1084.67 1246.5 1086C1240.85 1088.28 1239.16 1088.44 1194 1089L1193.83 1045.67C1193.74 1020.41 1194.05 1002.01 1194.58 1001.56C1195.09 1001.14 1205.18 1000.99 1217 1001.24ZM1203 1081C1236.05 1080.49 1239.12 1080.17 1243 1078.42C1245.47 1077.31 1249.23 1075.07 1251.35 1073.45C1253.46 1071.83 1256.46 1068.47 1258.01 1066C1259.57 1063.53 1261.61 1058.8 1262.55 1055.5C1263.84 1051.01 1264.12 1047.48 1263.68 1041.5C1263.24 1035.43 1262.36 1031.99 1260.05 1027.25C1257.88 1022.8 1255.63 1019.98 1252.25 1017.45C1249.64 1015.5 1245.03 1012.96 1242 1011.79C1237.44 1010.04 1233.66 1009.6 1219.87 1009.22L1203.24 1008.77L1203 1081ZM1530 1001L1538 1001L1538 1089L1530 1089L1530 1001Z"/>
</svg>